
<svg width="512" height="512" viewBox="0 0 512 512" fill="none" xmlns="http://www.w3.org/2000/svg">
  <circle cx="386" cy="138" r="28" fill="#F9C40E"/>
  <path d="M179.61 443.71C109.95 423.57 66.41 352.42 86.55 282.76c10.24-33.47 34.03-61.29 66.13-75.47" stroke="#255378" stroke-width="23" stroke-linecap="round"/>
  <path d="M256 94.3c56.7 0 110.7 34.8 134.1 87.1" stroke="#255378" stroke-width="23" stroke-linecap="round"/>
  <path d="M119.43 374.24c-31.35-60.62-9.6-135.13 50.91-166.47" stroke="#255378" stroke-width="10" stroke-linecap="round"/>
  <path d="M256 170l23.63 72.7h76.5l-61.87 45.47 23.63 72.7L256 315.4l-61.87 45.47 23.63-72.7-61.87-45.47h76.5L256 170z" fill="#F9C40E" stroke="#F9C40E" stroke-width="7"/>
  <path d="M430.8 344.8c-31.5 60.7-106 83.3-166.6 51.7" stroke="#255378" stroke-width="10" stroke-linecap="round"/>
  <path d="M256 45c116.5 0 211 94.5 211 211s-94.5 211-211 211S45 372.5 45 256 139.5 45 256 45z" stroke="#255378" stroke-width="12"/>
</svg>
